<svg xmlns="http://www.w3.org/2000/svg" id="Layer_1" data-name="Layer 1" viewBox="0 0 40 40">
                <script/>
                <defs>
                  <style>
                    .cls-1,
                    .cls-2 {
                      fill: none;
                      stroke: #fff;
                      stroke-width: 2.5px;
                    }

                    .cls-1 {
                      stroke-miterlimit: 6.67;
                    }

                    .cls-2 {
                      stroke-linecap: round;
                      stroke-linejoin: round;
                    }
                  </style>
                </defs>
                <path class="cls-1" d="M1.72,23.35v-6.7A1.65,1.65,0,0,1,3.37,15H8a1.61,1.61,0,0,0,.9-.27L16.17,10a1.65,1.65,0,0,1,2.55,1.38V28.62A1.65,1.65,0,0,1,16.17,30L8.93,25.27A1.61,1.61,0,0,0,8,25H3.37A1.65,1.65,0,0,1,1.72,23.35Z"/>
                <path class="cls-2" d="M25.93,13.4a10.05,10.05,0,0,1,0,13.2"/>
                <path class="cls-2" d="M30.88,8.45A17.1,17.1,0,0,1,35,20a17.1,17.1,0,0,1-4.12,11.55"/>
              </svg>