<svg width="917" height="243" viewBox="0 0 917 243" fill="none" xmlns="http://www.w3.org/2000/svg">
<rect width="917" height="243" fill="white"/>
<path d="M177.744 43.416C177.488 42.392 177.232 41.4533 176.976 40.6C176.72 39.7467 176.464 38.936 176.208 38.168C174.331 38.68 172.795 39.576 171.6 40.856C170.405 42.136 169.808 43.5867 169.808 45.208C169.808 46.6587 169.979 47.8533 170.32 48.792L173.904 49.816C178.256 51.096 182.651 52.7173 187.088 54.68C191.525 56.5573 195.579 58.8613 199.248 61.592C203.003 64.2373 206.032 67.3947 208.336 71.064C210.64 74.648 211.792 78.744 211.792 83.352C211.792 93.848 208.848 102.168 202.96 108.312C197.157 114.456 188.923 117.997 178.256 118.936C177.573 119.021 176.848 119.064 176.08 119.064C175.397 119.149 174.715 119.192 174.032 119.192C170.789 119.192 167.461 118.723 164.048 117.784C160.635 116.931 157.136 115.565 153.552 113.688C149.371 111.384 145.872 109.123 143.056 106.904C140.24 104.6 137.936 101.784 136.144 98.456C134.437 95.128 132.987 90.8187 131.792 85.528L153.168 77.336L165.968 83.736C166.48 85.9547 167.077 87.8747 167.76 89.496C172.965 88.728 175.568 86.1253 175.568 81.688C175.568 81.0053 175.483 80.408 175.312 79.896C175.227 79.2987 175.099 78.744 174.928 78.232C174.928 78.232 174.416 77.9333 173.392 77.336C172.368 76.7387 171.429 76.3547 170.576 76.184C162.299 74.136 155.429 71.704 149.968 68.888C144.592 66.072 140.581 62.488 137.936 58.136C135.376 53.784 134.096 48.28 134.096 41.624C134.096 35.992 135.419 30.872 138.064 26.264C140.709 21.5707 144.379 17.7733 149.072 14.872C153.851 11.8853 159.312 10.136 165.456 9.62399C166.224 9.53866 166.949 9.49599 167.632 9.49599C168.4 9.41066 169.125 9.368 169.808 9.368C173.648 9.368 177.019 9.87999 179.92 10.904C182.907 11.928 186.32 13.336 190.16 15.128C194.085 16.92 197.371 18.9253 200.016 21.144C202.661 23.3627 204.837 26.136 206.544 29.464C208.336 32.7067 209.829 36.888 211.024 42.008L190.544 49.816L177.744 43.416ZM164.816 91.032C161.403 91.032 158.672 90.008 156.624 87.96C154.576 85.912 153.083 82.968 152.144 79.128L133.2 86.296C135.163 94.744 138.405 101.059 142.928 105.24C147.451 109.336 153.552 111.384 161.232 111.384C161.915 111.384 162.597 111.384 163.28 111.384C163.963 111.384 164.645 111.341 165.328 111.256C175.568 110.403 183.504 106.989 189.136 101.016C194.853 95.0427 197.712 87.0213 197.712 76.952C197.712 69.784 195.707 64.2373 191.696 60.312C187.685 56.3867 181.627 53.3147 173.52 51.096L163.28 48.28C160.208 47.4267 158.16 46.1893 157.136 44.568C156.197 42.9467 155.728 41.0267 155.728 38.808C155.728 36.5893 156.581 34.6693 158.288 33.048C159.995 31.4267 162.256 30.488 165.072 30.232C165.413 30.232 165.712 30.232 165.968 30.232C166.309 30.1467 166.651 30.104 166.992 30.104C170.149 30.104 172.624 31 174.416 32.792C176.293 34.4987 177.701 37.4853 178.64 41.752L196.688 34.84C194.896 26.7333 191.824 20.7173 187.472 16.792C183.205 12.7813 177.317 10.776 169.808 10.776C169.125 10.776 168.4 10.776 167.632 10.776C166.949 10.776 166.267 10.8187 165.584 10.904C159.611 11.416 154.363 13.08 149.84 15.896C145.317 18.712 141.776 22.3387 139.216 26.776C136.656 31.2133 135.376 36.1627 135.376 41.624C135.376 49.1333 137.04 55.1067 140.368 59.544C143.781 63.9813 149.797 67.3093 158.416 69.528L166.352 71.576C169.595 72.4293 172.155 73.5387 174.032 74.904C175.909 76.2693 176.848 78.5307 176.848 81.688C176.848 87.2347 173.307 90.3493 166.224 91.032H164.816ZM267.203 110.104V76.056L258.883 76.824V116.888L236.867 118.808L224.067 112.408V15.128L246.083 13.208L258.883 19.608V48.408L267.203 47.64V12.696L289.347 10.648L302.147 17.048V114.456L280.003 116.376L267.203 110.104ZM268.483 13.848V48.792L244.803 50.84V14.616L225.347 16.28V111L244.803 109.464V69.272L268.483 67.224V108.696L288.067 106.904V12.056L268.483 13.848ZM367.591 118.936C366.994 119.021 366.354 119.064 365.671 119.064C365.074 119.064 364.476 119.064 363.879 119.064C359.442 119.064 355.346 118.424 351.591 117.144C347.922 115.949 344.338 114.541 340.839 112.92C331.708 108.397 325.01 102.04 320.743 93.848C316.562 85.5707 314.471 75.7573 314.471 64.408C314.471 57.752 315.282 51.3093 316.903 45.08C318.61 38.7653 321.127 33.0907 324.455 28.056C327.783 22.936 331.922 18.7547 336.871 15.512C341.906 12.2693 347.794 10.3493 354.535 9.752C355.218 9.66666 355.858 9.62399 356.455 9.62399C357.052 9.62399 357.65 9.62399 358.247 9.62399C362.514 9.62399 366.311 10.1787 369.639 11.288C372.967 12.312 376.338 13.5067 379.751 14.872C385.895 17.3467 391.015 21.016 395.111 25.88C399.207 30.744 402.279 36.4613 404.327 43.032C406.375 49.5173 407.399 56.472 407.399 63.896C407.399 70.808 406.588 77.4213 404.967 83.736C403.346 90.0507 400.871 95.768 397.543 100.888C394.3 105.923 390.162 110.019 385.127 113.176C380.178 116.419 374.332 118.339 367.591 118.936ZM354.663 111.256C361.234 110.744 366.951 108.952 371.815 105.88C376.679 102.723 380.69 98.6693 383.847 93.72C387.004 88.6853 389.351 83.096 390.887 76.952C392.508 70.7227 393.319 64.2373 393.319 57.496C393.319 51.352 392.594 45.5067 391.143 39.96C389.778 34.328 387.644 29.336 384.743 24.984C381.842 20.632 378.172 17.2187 373.735 14.744C369.383 12.184 364.22 10.904 358.247 10.904C357.65 10.904 357.052 10.904 356.455 10.904C355.943 10.904 355.346 10.9467 354.663 11.032C348.092 11.6293 342.375 13.5067 337.511 16.664C332.647 19.736 328.594 23.7893 325.351 28.824C322.108 33.7733 319.676 39.32 318.055 45.464C316.519 51.5227 315.751 57.8373 315.751 64.408C315.751 70.808 316.476 76.8667 317.927 82.584C319.378 88.216 321.554 93.208 324.455 97.56C327.356 101.827 331.026 105.197 335.463 107.672C339.9 110.147 345.063 111.384 350.951 111.384C351.634 111.384 352.274 111.384 352.871 111.384C353.468 111.384 354.066 111.341 354.663 111.256ZM354.663 91.416C354.322 91.416 353.98 91.4587 353.639 91.544C353.383 91.544 353.084 91.544 352.743 91.544C347.623 91.544 343.57 89.3253 340.583 84.888C337.682 80.4507 336.231 73.0267 336.231 62.616C336.231 55.192 337.042 49.2187 338.663 44.696C340.284 40.1733 342.503 36.8453 345.319 34.712C348.135 32.4933 351.25 31.256 354.663 31C355.004 31 355.346 31 355.687 31C356.028 30.9147 356.37 30.872 356.711 30.872C361.746 30.872 365.671 33.048 368.487 37.4C371.303 41.6667 372.711 49.0053 372.711 59.416C372.711 70.5093 371.004 78.5307 367.591 83.48C364.263 88.344 359.954 90.9893 354.663 91.416ZM354.279 90.136C359.314 89.7093 363.41 87.1493 366.567 82.456C369.81 77.7627 371.431 70.0827 371.431 59.416C371.431 54.552 371.132 50.4133 370.535 47C369.938 43.5867 369.042 40.8133 367.847 38.68C367.42 38.5947 366.994 38.552 366.567 38.552C366.14 38.4667 365.714 38.424 365.287 38.424C360.252 38.424 356.498 41.0693 354.023 46.36C351.548 51.5653 350.311 59.1173 350.311 69.016C350.311 73.9653 350.652 78.1893 351.335 81.688C352.018 85.1013 352.999 87.9173 354.279 90.136ZM419.692 112.28V15L452.844 12.056C453.356 11.9707 453.825 11.928 454.252 11.928C454.764 11.928 455.276 11.928 455.788 11.928C459.201 11.928 462.487 12.44 465.644 13.464C468.801 14.488 472.129 15.8107 475.628 17.432C482.199 20.3333 487.191 24.2587 490.604 29.208C494.017 34.072 495.724 40.4293 495.724 48.28C495.724 59.032 492.993 67.5653 487.532 73.88C482.071 80.1947 474.647 83.736 465.26 84.504L454.508 85.4V116.76L432.492 118.68L419.692 112.28ZM452.332 76.824C461.463 76.056 468.631 72.6427 473.836 66.584C479.041 60.44 481.644 52.2053 481.644 41.88C481.644 36.1627 480.62 31.1707 478.572 26.904C476.524 22.6373 473.58 19.3093 469.74 16.92C465.985 14.4453 461.42 13.208 456.044 13.208C455.532 13.208 455.02 13.208 454.508 13.208C453.996 13.208 453.484 13.2507 452.972 13.336L420.972 16.152V111L440.428 109.336V77.848L452.332 76.824ZM440.428 32.92L449.132 32.152C449.473 32.152 449.772 32.152 450.028 32.152C450.369 32.0667 450.668 32.024 450.924 32.024C454.081 32.024 456.556 32.9627 458.348 34.84C460.225 36.632 461.164 39.7893 461.164 44.312C461.164 49.0053 460.012 52.504 457.708 54.808C455.404 57.112 452.545 58.4347 449.132 58.776L440.428 59.544V32.92ZM454.508 55.832C456.215 54.6373 457.537 53.144 458.476 51.352C459.415 49.56 459.884 47.2133 459.884 44.312C459.884 42.52 459.756 41.112 459.5 40.088L454.508 40.472V55.832ZM508.707 110.744V13.464L530.979 11.416L543.779 17.816V115.096L521.507 117.016L508.707 110.744ZM509.987 14.616V109.336L529.699 107.544V12.824L509.987 14.616ZM605.233 109.848L595.633 88.216V116.888L573.617 118.808L560.817 112.408V15.128L581.553 13.336L594.353 19.736L603.825 40.216V12.696L626.097 10.648L638.897 17.048V114.456L618.033 116.248L605.233 109.848ZM605.105 13.848V49.688C605.105 50.6267 605.148 52.1627 605.233 54.296C605.318 56.344 605.404 58.52 605.489 60.824C605.66 63.0427 605.788 64.9627 605.873 66.584C605.958 68.12 606.001 68.888 606.001 68.888L605.617 69.144C605.617 69.144 605.489 68.6747 605.233 67.736C605.062 66.7973 604.764 65.688 604.337 64.408C603.91 63.0427 603.441 61.8053 602.929 60.696L580.785 14.744L562.097 16.28V111L581.553 109.464V75.928C581.553 74.904 581.51 73.1547 581.425 70.68C581.34 68.2053 581.254 65.6027 581.169 62.872C581.169 60.1413 581.126 57.8373 581.041 55.96C580.956 53.9973 580.913 53.016 580.913 53.016L581.297 52.888C581.297 52.888 581.51 53.7413 581.937 55.448C582.449 57.0693 583.132 58.776 583.985 60.568L606.385 108.568L624.817 106.904V12.056L605.105 13.848ZM736.981 96.408C734.421 102.381 730.282 107.416 724.565 111.512C718.933 115.608 711.978 117.997 703.701 118.68C702.933 118.765 702.165 118.808 701.397 118.808C700.629 118.808 699.861 118.808 699.093 118.808C692.693 118.808 686.592 117.699 680.789 115.48C675.072 113.261 669.994 109.933 665.557 105.496C661.12 100.973 657.621 95.256 655.061 88.344C652.501 81.432 651.221 73.24 651.221 63.768C651.221 56.5147 652.117 49.7307 653.909 43.416C655.701 37.016 658.304 31.3413 661.717 26.392C665.216 21.4427 669.44 17.4747 674.389 14.488C679.338 11.5013 684.928 9.752 691.157 9.24C691.669 9.15466 692.181 9.11199 692.693 9.11199C693.205 9.11199 693.717 9.11199 694.229 9.11199C700.458 9.11199 706.517 10.52 712.405 13.336C718.378 16.152 723.584 19.992 728.021 24.856C732.544 29.72 735.744 35.224 737.621 41.368L722.389 49.944L724.181 49.816L736.981 56.216V96.408ZM684.885 54.424V72.6L704.597 70.936V81.944C703.488 84.1627 701.696 86.0827 699.221 87.704C696.832 89.24 694.314 90.0933 691.669 90.264C691.328 90.3493 690.944 90.392 690.517 90.392C690.176 90.392 689.792 90.392 689.365 90.392C683.818 90.392 679.637 88.1733 676.821 83.736C674.005 79.2987 672.597 72.088 672.597 62.104C672.597 53.0587 674.048 45.848 676.949 40.472C679.85 35.096 684.501 32.152 690.901 31.64H692.309C695.808 31.64 698.794 32.664 701.269 34.712C703.829 36.76 705.664 39.7467 706.773 43.672L723.285 34.328C721.834 30.232 719.829 26.392 717.269 22.808C714.794 19.1387 711.68 16.152 707.925 13.848C704.17 11.544 699.605 10.392 694.229 10.392C693.802 10.392 693.333 10.392 692.821 10.392C692.309 10.392 691.797 10.4347 691.285 10.52C683.178 11.2027 676.224 14.0187 670.421 18.968C664.618 23.832 660.181 30.1893 657.109 38.04C654.037 45.8053 652.501 54.3813 652.501 63.768C652.501 73.496 653.909 81.9013 656.725 88.984C659.541 96.0667 663.552 101.528 668.757 105.368C673.962 109.208 680.149 111.128 687.317 111.128C687.914 111.128 688.469 111.128 688.981 111.128C689.578 111.128 690.176 111.085 690.773 111C698.794 110.317 705.536 108.056 710.997 104.216C716.544 100.291 720.554 95.4693 723.029 89.752V51.224L684.885 54.424ZM706.005 45.592C705.664 44.3973 705.28 43.288 704.853 42.264C704.426 41.1547 703.957 40.1733 703.445 39.32C699.605 39.6613 696.448 41.0267 693.973 43.416C691.584 45.72 689.792 48.8773 688.597 52.888L716.245 50.584L706.005 45.592ZM697.045 80.664L687.061 75.544C687.232 78.9573 687.573 81.6453 688.085 83.608C688.682 85.4853 689.536 87.32 690.645 89.112C690.901 89.0267 691.2 88.984 691.541 88.984C693.76 88.8133 695.978 88.1307 698.197 86.936C700.416 85.656 702.122 84.1627 703.317 82.456V79.896L697.045 80.664Z" fill="url(#paint0_linear_0_1)"/>
<path d="M234.912 232.616V164.264L226.848 164.904L214.048 158.504V137L277.792 131.368L290.592 137.768V159.272L269.728 161.064V236.84L247.712 238.888L234.912 232.616ZM276.512 151.72V132.776L215.328 138.152V157.096L236.192 155.304V231.208L255.648 229.544V153.512L276.512 151.72ZM349.841 240.936C349.244 241.021 348.604 241.064 347.921 241.064C347.324 241.064 346.726 241.064 346.129 241.064C341.692 241.064 337.596 240.424 333.841 239.144C330.172 237.949 326.588 236.541 323.089 234.92C313.958 230.397 307.26 224.04 302.993 215.848C298.812 207.571 296.721 197.757 296.721 186.408C296.721 179.752 297.532 173.309 299.153 167.08C300.86 160.765 303.377 155.091 306.705 150.056C310.033 144.936 314.172 140.755 319.121 137.512C324.156 134.269 330.044 132.349 336.785 131.752C337.468 131.667 338.108 131.624 338.705 131.624C339.302 131.624 339.9 131.624 340.497 131.624C344.764 131.624 348.561 132.179 351.889 133.288C355.217 134.312 358.588 135.507 362.001 136.872C368.145 139.347 373.265 143.016 377.361 147.88C381.457 152.744 384.529 158.461 386.577 165.032C388.625 171.517 389.649 178.472 389.649 185.896C389.649 192.808 388.838 199.421 387.217 205.736C385.596 212.051 383.121 217.768 379.793 222.888C376.55 227.923 372.412 232.019 367.377 235.176C362.428 238.419 356.582 240.339 349.841 240.936ZM336.913 233.256C343.484 232.744 349.201 230.952 354.065 227.88C358.929 224.723 362.94 220.669 366.097 215.72C369.254 210.685 371.601 205.096 373.137 198.952C374.758 192.723 375.569 186.237 375.569 179.496C375.569 173.352 374.844 167.507 373.393 161.96C372.028 156.328 369.894 151.336 366.993 146.984C364.092 142.632 360.422 139.219 355.985 136.744C351.633 134.184 346.47 132.904 340.497 132.904C339.9 132.904 339.302 132.904 338.705 132.904C338.193 132.904 337.596 132.947 336.913 133.032C330.342 133.629 324.625 135.507 319.761 138.664C314.897 141.736 310.844 145.789 307.601 150.824C304.358 155.773 301.926 161.32 300.305 167.464C298.769 173.523 298.001 179.837 298.001 186.408C298.001 192.808 298.726 198.867 300.177 204.584C301.628 210.216 303.804 215.208 306.705 219.56C309.606 223.827 313.276 227.197 317.713 229.672C322.15 232.147 327.313 233.384 333.201 233.384C333.884 233.384 334.524 233.384 335.121 233.384C335.718 233.384 336.316 233.341 336.913 233.256ZM336.913 213.416C336.572 213.416 336.23 213.459 335.889 213.544C335.633 213.544 335.334 213.544 334.993 213.544C329.873 213.544 325.82 211.325 322.833 206.888C319.932 202.451 318.481 195.027 318.481 184.616C318.481 177.192 319.292 171.219 320.913 166.696C322.534 162.173 324.753 158.845 327.569 156.712C330.385 154.493 333.5 153.256 336.913 153C337.254 153 337.596 153 337.937 153C338.278 152.915 338.62 152.872 338.961 152.872C343.996 152.872 347.921 155.048 350.737 159.4C353.553 163.667 354.961 171.005 354.961 181.416C354.961 192.509 353.254 200.531 349.841 205.48C346.513 210.344 342.204 212.989 336.913 213.416ZM336.529 212.136C341.564 211.709 345.66 209.149 348.817 204.456C352.06 199.763 353.681 192.083 353.681 181.416C353.681 176.552 353.382 172.413 352.785 169C352.188 165.587 351.292 162.813 350.097 160.68C349.67 160.595 349.244 160.552 348.817 160.552C348.39 160.467 347.964 160.424 347.537 160.424C342.502 160.424 338.748 163.069 336.273 168.36C333.798 173.565 332.561 181.117 332.561 191.016C332.561 195.965 332.902 200.189 333.585 203.688C334.268 207.101 335.249 209.917 336.529 212.136ZM483.606 218.408C481.046 224.381 476.907 229.416 471.19 233.512C465.558 237.608 458.603 239.997 450.326 240.68C449.558 240.765 448.79 240.808 448.022 240.808C447.254 240.808 446.486 240.808 445.718 240.808C439.318 240.808 433.217 239.699 427.414 237.48C421.697 235.261 416.619 231.933 412.182 227.496C407.745 222.973 404.246 217.256 401.686 210.344C399.126 203.432 397.846 195.24 397.846 185.768C397.846 178.515 398.742 171.731 400.534 165.416C402.326 159.016 404.929 153.341 408.342 148.392C411.841 143.443 416.065 139.475 421.014 136.488C425.963 133.501 431.553 131.752 437.782 131.24C438.294 131.155 438.806 131.112 439.318 131.112C439.83 131.112 440.342 131.112 440.854 131.112C447.083 131.112 453.142 132.52 459.03 135.336C465.003 138.152 470.209 141.992 474.646 146.856C479.169 151.72 482.369 157.224 484.246 163.368L469.014 171.944L470.806 171.816L483.606 178.216V218.408ZM431.51 176.424V194.6L451.222 192.936V203.944C450.113 206.163 448.321 208.083 445.846 209.704C443.457 211.24 440.939 212.093 438.294 212.264C437.953 212.349 437.569 212.392 437.142 212.392C436.801 212.392 436.417 212.392 435.99 212.392C430.443 212.392 426.262 210.173 423.446 205.736C420.63 201.299 419.222 194.088 419.222 184.104C419.222 175.059 420.673 167.848 423.574 162.472C426.475 157.096 431.126 154.152 437.526 153.64H438.934C442.433 153.64 445.419 154.664 447.894 156.712C450.454 158.76 452.289 161.747 453.398 165.672L469.91 156.328C468.459 152.232 466.454 148.392 463.894 144.808C461.419 141.139 458.305 138.152 454.55 135.848C450.795 133.544 446.23 132.392 440.854 132.392C440.427 132.392 439.958 132.392 439.446 132.392C438.934 132.392 438.422 132.435 437.91 132.52C429.803 133.203 422.849 136.019 417.046 140.968C411.243 145.832 406.806 152.189 403.734 160.04C400.662 167.805 399.126 176.381 399.126 185.768C399.126 195.496 400.534 203.901 403.35 210.984C406.166 218.067 410.177 223.528 415.382 227.368C420.587 231.208 426.774 233.128 433.942 233.128C434.539 233.128 435.094 233.128 435.606 233.128C436.203 233.128 436.801 233.085 437.398 233C445.419 232.317 452.161 230.056 457.622 226.216C463.169 222.291 467.179 217.469 469.654 211.752V173.224L431.51 176.424ZM452.63 167.592C452.289 166.397 451.905 165.288 451.478 164.264C451.051 163.155 450.582 162.173 450.07 161.32C446.23 161.661 443.073 163.027 440.598 165.416C438.209 167.72 436.417 170.877 435.222 174.888L462.87 172.584L452.63 167.592ZM443.67 202.664L433.686 197.544C433.857 200.957 434.198 203.645 434.71 205.608C435.307 207.485 436.161 209.32 437.27 211.112C437.526 211.027 437.825 210.984 438.166 210.984C440.385 210.813 442.603 210.131 444.822 208.936C447.041 207.656 448.747 206.163 449.942 204.456V201.896L443.67 202.664ZM497.942 234.024V136.744L553.11 131.88L565.91 138.28V159.272L532.63 162.216V169.896L546.326 168.616L559.126 175.016V195.752L532.63 198.184V210.216L555.286 208.168L568.086 214.568V235.432L510.742 240.424L497.942 234.024ZM518.55 212.776V190.632L545.046 188.2V170.024L518.55 172.456V154.664L551.83 151.72V133.288L499.222 137.896V232.744L554.006 227.88V209.576L518.55 212.776ZM593.912 232.616V164.264L585.848 164.904L573.048 158.504V137L636.792 131.368L649.592 137.768V159.272L628.728 161.064V236.84L606.712 238.888L593.912 232.616ZM635.512 151.72V132.776L574.328 138.152V157.096L595.192 155.304V231.208L614.648 229.544V153.512L635.512 151.72ZM702.953 232.104V198.056L694.633 198.824V238.888L672.617 240.808L659.817 234.408V137.128L681.833 135.208L694.633 141.608V170.408L702.953 169.64V134.696L725.097 132.648L737.897 139.048V236.456L715.753 238.376L702.953 232.104ZM704.233 135.848V170.792L680.553 172.84V136.616L661.097 138.28V233L680.553 231.464V191.272L704.233 189.224V230.696L723.817 228.904V134.056L704.233 135.848ZM754.317 234.024V136.744L809.485 131.88L822.285 138.28V159.272L789.005 162.216V169.896L802.701 168.616L815.501 175.016V195.752L789.005 198.184V210.216L811.661 208.168L824.461 214.568V235.432L767.117 240.424L754.317 234.024ZM774.925 212.776V190.632L801.421 188.2V170.024L774.925 172.456V154.664L808.205 151.72V133.288L755.597 137.896V232.744L810.381 227.88V209.576L774.925 212.776ZM879.471 231.72L870.383 215.336V238.632L848.367 240.552L835.567 234.152V136.872L867.695 134.056C868.378 133.971 869.018 133.928 869.615 133.928C870.298 133.928 870.938 133.928 871.535 133.928C876.484 133.928 881.263 134.696 885.871 136.232C890.479 137.768 894.618 140.029 898.287 143.016C901.956 146.003 904.858 149.629 906.991 153.896C909.124 158.077 910.191 162.856 910.191 168.232C910.191 181.8 905.242 191.571 895.343 197.544L916.975 236.072L892.271 238.12L879.471 231.72ZM880.751 190.632C886.042 187.731 889.924 183.891 892.399 179.112C894.874 174.333 896.111 168.573 896.111 161.832C896.111 153.896 893.892 147.496 889.455 142.632C885.103 137.683 878.959 135.208 871.023 135.208C870.511 135.208 869.999 135.208 869.487 135.208C868.975 135.208 868.42 135.251 867.823 135.336L836.847 138.024V232.872L856.303 231.208V197.416L861.807 196.904L880.111 230.44L901.999 228.52L880.751 190.632ZM856.303 154.792L864.751 154.024H866.159C868.975 154.024 871.322 154.877 873.199 156.584C875.162 158.205 876.143 161.064 876.143 165.16C876.143 169.427 875.119 172.755 873.071 175.144C871.023 177.448 868.25 178.771 864.751 179.112L856.303 179.88V154.792ZM870.383 175.912C873.37 173.779 874.863 170.195 874.863 165.16C874.863 164.563 874.82 164.008 874.735 163.496C874.735 162.984 874.692 162.472 874.607 161.96L870.383 162.344V175.912Z" fill="url(#paint1_linear_0_1)"/>
<path fill-rule="evenodd" clip-rule="evenodd" d="M0 16V0H152.799L138.755 16H0ZM0 31H125.589L109.79 49H0V31ZM0 64V82H91.4086C92.5723 75.7648 94.7871 69.672 98.071 64H0ZM0 115V97H90.6167C91.103 103.164 92.586 109.251 95.0488 115H0ZM0 130V148H124.249L109.839 135.351C107.916 133.663 106.133 131.875 104.493 130H0ZM0 181V163H141.339L161.846 181H0ZM0 196V214H199.443L178.936 196H0ZM216.532 229H0V243H232.483L216.532 229Z" fill="url(#paint2_linear_0_1)"/>
<defs>
<linearGradient id="paint0_linear_0_1" x1="437" y1="-37" x2="437" y2="148" gradientUnits="userSpaceOnUse">
<stop offset="0.375" stop-color="#2F1616"/>
<stop offset="0.588542" stop-color="#F44040" stop-opacity="0.65"/>
<stop offset="0.791667" stop-color="#030303" stop-opacity="0.8"/>
</linearGradient>
<linearGradient id="paint1_linear_0_1" x1="568.5" y1="85" x2="568.5" y2="270" gradientUnits="userSpaceOnUse">
<stop offset="0.375" stop-color="#2F1616"/>
<stop offset="0.588542" stop-color="#F44040" stop-opacity="0.65"/>
<stop offset="0.791667" stop-color="#030303" stop-opacity="0.8"/>
</linearGradient>
<linearGradient id="paint2_linear_0_1" x1="116.241" y1="0" x2="116.241" y2="243" gradientUnits="userSpaceOnUse">
<stop offset="0.156379" stop-color="#2F1616" stop-opacity="0.82"/>
<stop offset="0.271605" stop-color="#F44040" stop-opacity="0.53"/>
<stop offset="0.37037" stop-color="#030303" stop-opacity="0.75"/>
<stop offset="0.699588" stop-color="#2F1616" stop-opacity="0.92"/>
<stop offset="0.798354" stop-color="#F44040" stop-opacity="0.58"/>
<stop offset="0.884774" stop-color="#030303" stop-opacity="0.81"/>
</linearGradient>
</defs>
</svg>
