<svg xmlns="http://www.w3.org/2000/svg" id="Layer_1" data-name="Layer 1" viewBox="0 0 40 40"><script/><defs><style>.cls-1,.cls-2{fill:none;stroke:#fff;stroke-width:2.5px;}.cls-1{stroke-linecap:round;stroke-linejoin:round;}.cls-2{stroke-miterlimit:6.67;}</style></defs><path class="cls-1" d="M25.28,23.57,28.85,20m3.57-3.57L28.85,20m0,0-3.57-3.57M28.85,20l3.57,3.57"/><path class="cls-2" d="M2,23.39V16.61A1.61,1.61,0,0,1,3.61,15H8.32a1.62,1.62,0,0,0,.88-.26L16.51,10A1.61,1.61,0,0,1,19,11.3V28.7A1.61,1.61,0,0,1,16.51,30L9.2,25.26A1.62,1.62,0,0,0,8.32,25H3.61A1.61,1.61,0,0,1,2,23.39Z"/></svg>